HIERARCHY
ROOT Hips
{
	OFFSET 0.000000 0.000000 0.000000 
	CHANNELS 6 Xposition Yposition Zposition Zrotation Yrotation Xrotation
	JOINT LeftUpLeg
	{
		OFFSET 1.363060 -1.794630 0.839290 
		CHANNELS 3 Zrotation Yrotation Xrotation
		JOINT LeftLeg
		{
			OFFSET 2.448110 -6.726130 0.000000 
			CHANNELS 3 Zrotation Yrotation Xrotation
			JOINT LeftFoot
			{
				OFFSET 2.562200 -7.039590 0.000000 
				CHANNELS 3 Zrotation Yrotation Xrotation
				JOINT LeftToeBase
				{
					OFFSET 0.157640 -0.433110 2.322550 
					CHANNELS 3 Zrotation Yrotation Xrotation
					End Site
					{
						OFFSET 0.000000 0.000000 0.000000 
					}
				}
			}
		}
	}
	JOINT RightUpLeg
	{
		OFFSET -1.305520 -1.794630 0.839290 
		CHANNELS 3 Zrotation Yrotation Xrotation
		JOINT RightLeg
		{
			OFFSET -2.542530 -6.985550 0.000000 
			CHANNELS 3 Zrotation Yrotation Xrotation
			JOINT RightFoot
			{
				OFFSET -2.568260 -7.056230 0.000000 
				CHANNELS 3 Zrotation Yrotation Xrotation
				JOINT RightToeBase
				{
					OFFSET -0.164730 -0.452590 2.363150 
					CHANNELS 3 Zrotation Yrotation Xrotation
					End Site
					{
						OFFSET 0.000000 0.000000 0.000000 
					}
				}
			}
		}
	}
	JOINT Spine
	{
		OFFSET 0.028270 2.035590 -0.193380 
		CHANNELS 3 Zrotation Yrotation Xrotation
		JOINT Spine1
		{
			OFFSET 0.056720 2.048850 -0.042750 
			CHANNELS 3 Zrotation Yrotation Xrotation
			JOINT Neck1
			{
				OFFSET -0.054170 1.746240 0.172020 
				CHANNELS 3 Zrotation Yrotation Xrotation
				JOINT Head
				{
					OFFSET 0.104070 1.761360 -0.123970 
					CHANNELS 3 Zrotation Yrotation Xrotation
					End Site
					{
						OFFSET 0.000000 0.000000 0.000000 
					}
				}
			}
			JOINT LeftArm
			{
				OFFSET 3.362410 1.200890 -0.311210 
				CHANNELS 3 Zrotation Yrotation Xrotation
				JOINT LeftForeArm
				{
					OFFSET 4.983000 -0.000000 -0.000000 
					CHANNELS 3 Zrotation Yrotation Xrotation
					JOINT LeftHand
					{
						OFFSET 3.483560 -0.000000 -0.000000 
						CHANNELS 3 Zrotation Yrotation Xrotation
						JOINT LeftHandIndex1
						{
							OFFSET 0.715260 -0.000000 -0.000000 
							CHANNELS 3 Zrotation Yrotation Xrotation
							End Site
							{
								OFFSET 0.000000 0.000000 0.000000 
							}
						}
					}
				}
			}
			JOINT RightArm
			{
				OFFSET -3.136600 1.374050 -0.404650 
				CHANNELS 3 Zrotation Yrotation Xrotation
				JOINT RightForeArm
				{
					OFFSET -5.241900 -0.000000 -0.000000 
					CHANNELS 3 Zrotation Yrotation Xrotation
					JOINT RightHand
					{
						OFFSET -3.444170 -0.000000 -0.000000 
						CHANNELS 3 Zrotation Yrotation Xrotation
						JOINT RightHandIndex1
						{
							OFFSET -0.622530 -0.000000 -0.000000 
							CHANNELS 3 Zrotation Yrotation Xrotation
							End Site
							{
								OFFSET 0.000000 0.000000 0.000000 
							}
						}
					}
				}
			}
		}
	}
}
MOTION
Frames: 15
Frame Time: 0.041667
-34.835641 17.182621 28.092612 -177.216067 -0.020705 -175.398513 -14.801669 30.262280 -44.011038 9.893683 16.927459 53.807799 1.671685 2.082219 4.718081 0.415100 4.135800 11.459100 20.345118 -36.683672 -49.197765 -11.117936 -17.075886 56.192951 0.465131 -6.284724 6.713136 -0.319100 -3.631300 10.041600 0.216875 4.265850 -5.998236 -0.586861 2.143793 -7.270825 6.346070 -2.510127 8.370391 0.575500 -1.067100 10.667400 12.207445 -0.508739 40.093746 8.151766 -10.731513 -4.775031 -0.221736 -1.097190 -14.711421 -7.125000 0.000000 0.000000 -14.811626 -5.677963 40.916288 -7.315706 12.308772 -7.207729 0.923470 -1.563965 -17.635934 7.125000 0.000000 0.000000 
-34.836156 17.172716 28.089010 -177.216312 0.024647 -175.411173 -14.805638 30.296182 -44.043910 9.938023 16.948630 53.933650 1.779659 1.875824 4.677941 0.443200 4.271600 11.842100 20.333465 -36.688014 -49.212236 -11.151437 -17.093349 56.301391 0.393536 -6.149192 6.693674 -0.332300 -3.704600 10.247000 0.220170 4.238994 -5.987157 -0.559267 2.129148 -7.292282 6.398491 -3.018549 8.184704 0.613400 -1.325800 10.498200 12.170319 -0.441444 40.167849 8.123209 -10.735749 -4.789352 -0.229988 -1.133677 -14.690063 -7.125000 0.000000 0.000000 -14.827174 -5.665595 40.885291 -7.337904 12.330197 -7.230953 0.986672 -1.523636 -17.670430 7.125000 0.000000 0.000000 
-34.837956 17.166671 28.086309 -177.207929 0.046661 -175.413398 -14.818774 30.319762 -44.081292 9.979352 16.967805 54.048500 1.717506 1.977992 4.556677 0.409300 4.107000 11.377900 20.313555 -36.662068 -49.213152 -11.181926 -17.108190 56.410062 0.317269 -6.003696 6.649322 -0.345600 -3.777700 10.452000 0.226487 4.206718 -5.973938 -0.521327 2.105673 -7.295674 6.543630 -3.557382 8.055686 0.751600 -1.604200 10.399100 12.132651 -0.373011 40.313096 8.099464 -10.741684 -4.812243 -0.215292 -1.131002 -14.682859 -7.125000 0.000000 0.000000 -14.837236 -5.660203 40.734544 -7.323277 12.317911 -7.215358 1.085792 -1.564120 -17.492471 7.125000 0.000000 0.000000 
-34.837570 17.154322 28.082450 -177.182168 0.064756 -175.425225 -14.823741 30.391027 -44.144831 10.032638 16.986107 54.184087 1.813205 1.793859 4.511420 0.414900 4.134800 11.456300 20.323424 -36.659977 -49.238938 -11.221650 -17.131806 56.541999 0.277992 -5.921680 6.586841 -0.336700 -3.728900 10.315300 0.229416 4.145963 -5.972600 -0.521591 2.076741 -7.344330 6.618333 -4.079420 7.905883 0.802300 -1.868800 10.256400 12.117593 -0.294609 40.518955 8.101679 -10.741908 -4.841618 -0.187407 -1.126385 -14.650915 -7.125000 0.000000 0.000000 -14.864894 -5.603644 40.823781 -7.348801 12.330072 -7.215637 1.152785 -1.522502 -17.526065 7.125000 0.000000 0.000000 
-34.839371 17.145833 28.079363 -177.187064 0.077462 -175.445553 -14.843236 30.429827 -44.186423 10.076239 17.004239 54.307012 1.833499 1.744712 4.455198 0.406400 4.092500 11.337000 20.255550 -36.632912 -49.229501 -11.252304 -17.150257 56.662674 0.036687 -5.485708 6.647349 -0.411700 -4.118800 11.411200 0.239311 4.029750 -5.978821 -0.486871 2.027558 -7.391498 6.656033 -4.586290 7.789023 0.807400 -2.125700 10.155200 12.089337 -0.202580 40.561246 8.088882 -10.737907 -4.853605 -0.181722 -1.098612 -14.606402 -7.125000 0.000000 0.000000 -14.829073 -5.583001 39.952729 -7.217177 12.263128 -7.134041 1.049763 -1.708306 -16.774989 7.125000 0.000000 0.000000 
-34.840014 17.136700 28.075890 -177.184852 0.094186 -175.458771 -14.855287 30.468170 -44.227547 10.122143 17.022956 54.434191 1.872652 1.662532 4.382556 0.404300 4.082300 11.308400 20.219023 -36.609897 -49.228428 -11.287860 -17.170561 56.786856 -0.076763 -5.273078 6.620983 -0.441700 -4.264600 11.822300 0.245972 3.950236 -5.976114 -0.460418 1.992502 -7.430585 6.713172 -5.100870 7.668468 0.846500 -2.389200 10.050300 12.058640 -0.120393 40.642093 8.070803 -10.739026 -4.871707 -0.161719 -1.087572 -14.623890 -7.125000 0.000000 0.000000 -14.833180 -5.539651 39.733392 -7.188123 12.251662 -7.108691 1.033657 -1.737747 -16.642489 7.125000 0.000000 0.000000 
-34.840658 17.127696 28.072417 -177.185118 0.107215 -175.473744 -14.865059 30.499303 -44.262078 10.165203 17.040455 54.555135 1.908714 1.586436 4.310618 0.403200 4.076600 11.292200 20.180650 -36.585183 -49.223630 -11.323312 -17.190743 56.907544 -0.169445 -5.097163 6.582483 -0.466500 -4.380700 12.150400 0.253024 3.864880 -5.973120 -0.431362 1.955784 -7.472614 6.759620 -5.614286 7.557698 0.877700 -2.653000 9.953700 12.024917 -0.037021 40.689161 8.047462 -10.740451 -4.887784 -0.135609 -1.076027 -14.660658 -7.125000 0.000000 0.000000 -14.838862 -5.488952 39.570351 -7.163911 12.244532 -7.084834 1.002541 -1.753052 -16.590181 7.125000 0.000000 0.000000 
-34.840915 17.118435 28.068815 -177.188242 0.118468 -175.488694 -14.871553 30.522121 -44.289453 10.207254 17.057832 54.674914 1.942503 1.514674 4.232352 0.403500 4.078100 11.296600 20.142261 -36.560151 -49.216850 -11.358931 -17.210676 57.025212 -0.239869 -4.960663 6.530665 -0.485300 -4.467000 12.394500 0.260977 3.774243 -5.968967 -0.397609 1.917791 -7.515157 6.794756 -6.122544 7.455144 0.901900 -2.915200 9.864000 11.985082 0.050291 40.696752 8.015960 -10.742501 -4.901558 -0.107733 -1.068008 -14.712297 -7.125000 0.000000 0.000000 -14.846621 -5.431031 39.468097 -7.146560 12.243413 -7.063752 0.962116 -1.753478 -16.612796 7.125000 0.000000 0.000000 
-34.841172 17.109302 28.065213 -177.193753 0.128573 -175.505580 -14.874423 30.534293 -44.308619 10.247925 17.075548 54.793258 1.971347 1.452288 4.144911 0.404200 4.081500 11.306100 20.104546 -36.536025 -49.209162 -11.395228 -17.230221 57.141932 -0.291190 -4.857982 6.464705 -0.498100 -4.524800 12.558000 0.269199 3.685240 -5.962672 -0.358655 1.880449 -7.553814 6.824665 -6.634149 7.361001 0.924100 -3.179600 9.784700 11.939358 0.135625 40.650137 7.974807 -10.745606 -4.911489 -0.079904 -1.063562 -14.760392 -7.125000 0.000000 0.000000 -14.853102 -5.375747 39.408947 -7.133297 12.246354 -7.045738 0.921307 -1.742952 -16.670195 7.125000 0.000000 0.000000 
-34.841043 17.100298 28.061612 -177.207434 0.137752 -175.524047 -14.874544 30.537776 -44.321038 10.287414 17.093775 54.909635 1.993149 1.403042 4.046986 0.404400 4.082400 11.308600 20.065070 -36.510751 -49.198638 -11.432022 -17.248327 57.259646 -0.336834 -4.765430 6.389278 -0.510100 -4.577900 12.708600 0.281197 3.686498 -5.953145 -0.321097 2.157046 -7.587608 6.852160 -7.144649 7.272871 0.948300 -3.443900 9.714500 11.880294 0.223568 40.555770 7.919243 -10.752659 -4.917482 -0.057920 -1.062631 -14.792621 -7.125000 0.000000 0.000000 -14.864877 -5.323251 39.427294 -7.129933 12.256665 -7.033890 0.889841 -1.717881 -16.766373 7.125000 0.000000 0.000000 
-34.840786 17.090779 28.058139 -177.218364 0.146338 -175.542843 -14.870539 30.530895 -44.325415 10.325769 17.111888 55.025738 2.013378 1.356888 3.944949 0.405800 4.089800 11.329400 20.032710 -36.493282 -49.194737 -11.471404 -17.267728 57.379550 -0.354423 -4.722430 6.295619 -0.509400 -4.574800 12.699700 0.289978 3.598736 -5.942785 -0.267510 2.120907 -7.619178 6.884115 -7.648483 7.192059 0.978500 -3.705300 9.655300 11.821087 0.311378 40.420369 7.858282 -10.757000 -4.919623 -0.045312 -1.066282 -14.802374 -7.125000 0.000000 0.000000 -14.865971 -5.276764 39.439440 -7.126291 12.270399 -7.023923 0.865222 -1.699270 -16.797929 7.125000 0.000000 0.000000 
-34.840272 17.081132 28.054794 -177.229206 0.154648 -175.561394 -14.863617 30.515955 -44.324688 10.363149 17.129995 55.140397 2.026970 1.323164 3.838989 0.406400 4.092700 11.337700 20.001833 -36.478106 -49.193538 -11.511631 -17.287022 57.501349 -0.371993 -4.679327 6.199889 -0.508600 -4.571500 12.690200 0.298493 3.511711 -5.931379 -0.209485 2.084577 -7.647127 6.918716 -8.143983 7.115809 1.011900 -3.962200 9.605200 11.758672 0.399383 40.258307 7.791621 -10.760924 -4.918151 -0.045717 -1.071410 -14.788194 -7.125000 0.000000 0.000000 -14.860709 -5.237744 39.450802 -7.122466 12.286728 -7.015200 0.852381 -1.690130 -16.761511 7.125000 0.000000 0.000000 
-34.839629 17.072643 28.051579 -177.234874 0.161096 -175.580794 -14.849140 30.492633 -44.315163 10.397860 17.146623 55.247993 2.041356 1.288586 3.736555 0.409400 4.107200 11.378500 19.960911 -36.454850 -49.185495 -11.548455 -17.305337 57.619914 -0.445241 -4.537910 6.136390 -0.533100 -4.678400 12.993600 0.306739 3.424824 -5.919038 -0.148848 2.047772 -7.671754 6.957934 -8.623580 7.042099 1.050700 -4.210800 9.562700 11.693204 0.488267 40.074954 7.719522 -10.764069 -4.912804 -0.059255 -1.074728 -14.749132 -7.125000 0.000000 0.000000 -14.849361 -5.205599 39.462155 -7.119147 12.306720 -7.009435 0.847598 -1.691063 -16.663868 7.125000 0.000000 0.000000 
-34.838857 17.064024 28.048492 -177.237718 0.165591 -175.600665 -14.828477 30.463072 -44.301452 10.432174 17.162718 55.353752 2.051304 1.262300 3.634564 0.412200 4.121100 11.417700 19.927621 -36.432704 -49.179057 -11.585098 -17.323742 57.736868 -0.497296 -4.433905 6.062683 -0.549900 -4.750600 13.198700 0.314241 3.336544 -5.906095 -0.085209 2.010389 -7.691856 6.994098 -9.079688 6.966957 1.086200 -4.446600 9.522400 11.627871 0.578948 39.896468 7.646035 -10.766209 -4.905501 -0.083291 -1.077694 -14.705800 -7.125000 0.000000 0.000000 -14.828341 -5.179526 39.461849 -7.116829 12.333042 -7.008221 0.847515 -1.698831 -16.515491 7.125000 0.000000 0.000000 
-34.837956 17.056178 28.045533 -177.234170 0.168356 -175.620315 -14.799932 30.428396 -44.282147 10.464628 17.177283 55.453305 2.060405 1.237948 3.538298 0.416500 4.142300 11.477400 19.893943 -36.403577 -49.166335 -11.618230 -17.341365 57.846798 -0.555879 -4.318892 5.996127 -0.572600 -4.845800 13.469300 0.321056 3.248200 -5.893766 -0.024505 1.973023 -7.710393 7.029078 -9.508386 6.894079 1.120000 -4.667600 9.486000 11.566007 0.667686 39.737788 7.575847 -10.766768 -4.896805 -0.111241 -1.079257 -14.669778 -7.125000 0.000000 0.000000 -14.805048 -5.152733 39.486864 -7.118383 12.363189 -7.009440 0.849733 -1.710167 -16.384754 7.125000 0.000000 0.000000 
